<svg width="17" height="17" viewBox="0 0 17 17" fill="none" xmlns="http://www.w3.org/2000/svg">
<path d="M15.8354 3.47083C15.7104 3.37083 15.6021 3.2875 15.4938 3.20417L15.5188 3.17083C16.1688 2.52083 16.1688 1.47083 15.5188 0.820832C14.8688 0.170832 13.8188 0.170832 13.1604 0.820832L12.5437 1.4375C11.9865 1.01548 11.2951 0.809917 10.5979 0.858957C9.90057 0.907996 9.24475 1.20831 8.75208 1.70417L1.37708 9.07917C0.881224 9.57184 0.580914 10.2277 0.531875 10.9249C0.482835 11.6222 0.688396 12.3136 1.11042 12.8708L0.49375 13.4875C-0.164583 14.1458 -0.164583 15.1958 0.49375 15.8458C1.14375 16.4958 2.19375 16.4958 2.84375 15.8458L2.87708 15.8208C2.96042 15.9292 3.04375 16.0375 3.14375 16.1625C4.27708 17.2792 6.12708 17.2792 7.26875 16.1625L15.8104 7.59583C16.3568 7.05 16.6658 6.31074 16.6705 5.53847C16.6752 4.7662 16.3751 4.02325 15.8354 3.47083ZM2.31042 11.6708C2.19816 11.4375 2.16112 11.1751 2.20441 10.9199C2.2477 10.6646 2.36919 10.4291 2.55208 10.2458L9.91875 2.87917C10.102 2.69627 10.3375 2.57478 10.5928 2.53149C10.848 2.4882 11.1104 2.52524 11.3438 2.6375L2.31042 11.6708ZM14.6354 6.4125L6.08542 14.9625C5.60208 15.4542 4.81042 15.4542 4.31875 14.9625C3.83542 14.4958 3.83542 13.6625 4.31875 13.1958L12.8688 4.64583C13.3354 4.1625 14.1687 4.1625 14.6354 4.64583C15.1271 5.1375 15.1271 5.92917 14.6354 6.4125Z" fill="#8E6A5D"/>
</svg>
