<svg width="18" height="17" viewBox="0 0 18 17" fill="none" xmlns="http://www.w3.org/2000/svg">
<path d="M9.10579 0.166664C13.6891 0.166664 17.4391 2.96666 17.4391 6.41666C17.4391 7.825 16.8225 9.125 15.7725 10.1667V16.8333H2.43913V10.1667C1.38913 9.125 0.772461 7.825 0.772461 6.41666C0.772461 2.96666 4.52246 0.166664 9.10579 0.166664ZM14.1058 9.45C15.1391 8.64166 15.7725 7.575 15.7725 6.41666C15.7725 3.88333 12.7891 1.83333 9.10579 1.83333C5.42246 1.83333 2.43913 3.88333 2.43913 6.41666C2.43913 7.575 3.07246 8.64166 4.10579 9.45V15.1667H14.1058V9.45ZM5.77246 13.5V10.1667H9.10579V13.5H5.77246Z" fill="#8E6A5D"/>
</svg>
