<svg width="16" height="17" viewBox="0 0 16 17" fill="none" xmlns="http://www.w3.org/2000/svg">
<path d="M12.0056 2.25002L13.7973 4.00002L9.18896 7.66668L8.35563 6.83335L11.9973 2.25002H12.0056ZM12.0056 0.583349C11.7594 0.581722 11.5158 0.634686 11.2925 0.738431C11.0691 0.842176 10.8716 0.994125 10.714 1.18335L6.10563 6.95835L9.05563 9.90835L14.839 5.30835C15.589 4.67502 15.6473 3.53335 14.9473 2.83335L13.189 1.07502C12.8556 0.741683 12.4306 0.583349 12.0056 0.583349ZM5.5223 7.55002L4.93063 8.14168C4.77439 8.30065 4.68684 8.51462 4.68684 8.73752C4.68684 8.96041 4.77439 9.17439 4.93063 9.33335L6.68897 11.0833C6.86397 11.25 7.0723 11.325 7.28897 11.325C7.50563 11.325 7.71397 11.25 7.88063 11.0833L8.46397 10.5L5.5223 7.55002ZM2.93896 11.4167C2.48063 11.4167 2.10563 11.7917 2.10563 12.25C2.10563 12.7083 2.48063 13.0833 2.93896 13.0833C3.3973 13.0833 3.7723 12.7083 3.7723 12.25C3.7723 11.7917 3.3973 11.4167 2.93896 11.4167ZM5.43896 12.25C4.98063 12.25 4.60563 12.625 4.60563 13.0833C4.60563 13.5417 4.98063 13.9167 5.43896 13.9167C5.8973 13.9167 6.2723 13.5417 6.2723 13.0833C6.2723 12.625 5.8973 12.25 5.43896 12.25ZM1.2723 13.9167C0.813965 13.9167 0.438965 14.2917 0.438965 14.75C0.438965 15.2083 0.813965 15.5833 1.2723 15.5833C1.73063 15.5833 2.10563 15.2083 2.10563 14.75C2.10563 14.2917 1.73063 13.9167 1.2723 13.9167ZM3.7723 14.75C3.31397 14.75 2.93896 15.125 2.93896 15.5833C2.93896 16.0417 3.31397 16.4167 3.7723 16.4167C4.23063 16.4167 4.60563 16.0417 4.60563 15.5833C4.60563 15.125 4.23063 14.75 3.7723 14.75Z" fill="#8E6A5D"/>
</svg>
