<svg width="14" height="19" viewBox="0 0 14 19" fill="none" xmlns="http://www.w3.org/2000/svg">
<path d="M11.6885 4.95833C11.4801 2.6 9.51348 0.75 7.10514 0.75C4.69681 0.75 2.73014 2.6 2.52181 4.95833C1.34681 5.15 0.438477 6.16667 0.438477 7.41667C0.438477 8.8 1.55514 9.91667 2.93848 9.91667L7.10514 18.25L11.2718 9.91667C12.6551 9.91667 13.7718 8.8 13.7718 7.41667C13.7718 6.16667 12.8635 5.15 11.6885 4.95833ZM7.10514 14.525L4.51348 9.34167C4.56348 9.3 4.60514 9.25833 4.67181 9.21667C5.40117 9.67361 6.24446 9.91595 7.10514 9.91595C7.96582 9.91595 8.80911 9.67361 9.53848 9.21667C9.60514 9.25833 9.64681 9.3 9.69681 9.34167L7.10514 14.525Z" fill="#8E6A5D"/>
</svg>
