<svg width="18" height="15" viewBox="0 0 18 15" fill="none" xmlns="http://www.w3.org/2000/svg">
<path d="M2.43864 11.25V4.16667H1.60531V3.33333H2.43864V2.5H1.60531V1.66667H2.43864V0.833333H1.60531V0H6.60531C7.02197 0.025 7.39697 0.2 7.72197 0.525C8.04697 0.85 8.23031 1.25 8.27197 1.66667H16.6053V2.5H8.27197C8.23031 2.94167 8.04697 3.33333 7.72197 3.69167C7.39697 4.05 7.02197 4.20833 6.60531 4.16667H4.93864V10.0417C4.98031 10.0417 5.04697 10.0333 5.13864 10C5.23031 9.96667 5.30531 10 5.35531 10C5.82197 10 6.35531 10.1167 6.95531 10.35C7.29697 9.58333 7.88031 8.9 8.71364 8.33333C9.54697 7.76667 10.3803 7.5 11.2136 7.5C12.4886 7.5 13.572 7.94167 14.4553 8.825C15.3386 9.70833 15.772 10.7917 15.772 12.0833V12.3083C15.772 12.4167 15.747 12.475 15.747 12.5H1.72197C1.83031 12.0833 2.06364 11.6667 2.43864 11.25ZM4.10531 10.1917V4.16667H3.27197V10.5833C3.68864 10.375 3.94697 10.25 4.10531 10.1917ZM6.60531 3.33333V2.5H4.93864V3.33333H6.60531ZM6.60531 0.833333H4.93864V1.66667H6.60531V0.833333ZM3.27197 0.833333V1.66667H4.10531V0.833333H3.27197ZM3.27197 2.5V3.33333H4.10531V2.5H3.27197ZM0.771973 13.3333H17.4386L15.772 15H2.43864L0.771973 13.3333Z" fill="#8E6A5D"/>
</svg>
