<svg width="12" height="15" viewBox="0 0 12 15" fill="none" xmlns="http://www.w3.org/2000/svg">
<path d="M10.5602 6.83376C10.3685 6.58376 10.1352 6.36709 9.91855 6.15043C9.36021 5.65043 8.72688 5.29209 8.19355 4.76709C6.95188 3.55043 6.67688 1.54209 7.46855 0.000427246C6.67688 0.192094 5.98521 0.625427 5.39355 1.10043C3.23521 2.83376 2.38521 5.89209 3.40188 8.51709C3.43521 8.60043 3.46855 8.68376 3.46855 8.79209C3.46855 8.97543 3.34355 9.14209 3.17688 9.20876C2.98521 9.29209 2.78521 9.24209 2.62688 9.10876C2.57958 9.06914 2.54003 9.02111 2.51021 8.96709C1.56855 7.77543 1.41855 6.06709 2.05188 4.70043C0.660214 5.83376 -0.0981194 7.75043 0.0102139 9.55876C0.0602139 9.97543 0.110214 10.3921 0.251881 10.8088C0.368547 11.3088 0.593547 11.8088 0.843547 12.2504C1.74355 13.6921 3.30188 14.7254 4.97688 14.9338C6.76021 15.1588 8.66855 14.8338 10.0352 13.6004C11.5602 12.2171 12.0935 10.0004 11.3102 8.10043L11.2019 7.88376C11.0269 7.50043 10.5602 6.83376 10.5602 6.83376ZM7.92688 12.0838C7.69355 12.2838 7.31021 12.5004 7.01021 12.5838C6.07688 12.9171 5.14355 12.4504 4.59355 11.9004C5.58521 11.6671 6.17688 10.9338 6.35188 10.1921C6.49355 9.52543 6.22688 8.97543 6.11855 8.33376C6.01855 7.71709 6.03521 7.19209 6.26021 6.61709C6.41855 6.93376 6.58521 7.25043 6.78521 7.50043C7.42688 8.33376 8.43521 8.70043 8.65188 9.83376C8.68521 9.95043 8.70188 10.0671 8.70188 10.1921C8.72688 10.8754 8.42688 11.6254 7.92688 12.0838Z" fill="#8E6A5D"/>
</svg>
