<svg width="18" height="15" viewBox="0 0 18 15" fill="none" xmlns="http://www.w3.org/2000/svg">
<path d="M0.668945 15V13.3333H15.6689V15H0.668945ZM15.6689 4.16667V1.66667H14.0023V4.16667H15.6689ZM15.6689 0C16.111 0 16.5349 0.175595 16.8475 0.488155C17.16 0.800716 17.3356 1.22464 17.3356 1.66667V4.16667C17.3356 4.60869 17.16 5.03262 16.8475 5.34518C16.5349 5.65774 16.111 5.83333 15.6689 5.83333H14.0023V8.33333C14.0023 9.21739 13.6511 10.0652 13.026 10.6904C12.4008 11.3155 11.553 11.6667 10.6689 11.6667H5.66895C4.78489 11.6667 3.93704 11.3155 3.31192 10.6904C2.6868 10.0652 2.33561 9.21739 2.33561 8.33333V0H15.6689ZM12.3356 1.66667H4.00228V8.33333C4.00228 8.77536 4.17787 9.19928 4.49043 9.51184C4.80299 9.8244 5.22692 10 5.66895 10H10.6689C11.111 10 11.5349 9.8244 11.8475 9.51184C12.16 9.19928 12.3356 8.77536 12.3356 8.33333V1.66667Z" fill="#8E6A5D"/>
</svg>
