<svg width="13" height="17" viewBox="0 0 13 17" fill="none" xmlns="http://www.w3.org/2000/svg">
<path d="M0.337402 0.333332L2.00407 17H11.1707L12.8374 0.333332H0.337402ZM2.17074 2H11.0041L10.7541 4.69167C7.9874 5.75 6.87907 5.05833 6.4874 4.75833C6.27907 4.6 5.97907 4.24167 5.42907 3.99167C4.87907 3.73333 4.12907 3.66667 3.25407 3.93333C2.9124 4.025 2.64574 4.175 2.42074 4.325L2.17074 2ZM4.3874 5.425C4.54574 5.425 4.6374 5.45833 4.72907 5.5C4.92074 5.58333 5.09574 5.79167 5.47907 6.08333C6.19574 6.63333 7.8624 7.3 10.5541 6.50833L9.67074 15.3333H3.50407L2.59574 6.21667C2.6374 6.16667 2.7624 6.075 2.97907 5.925C3.25407 5.75 3.59574 5.56667 3.67074 5.54167H3.69574C4.0124 5.45 4.22907 5.41667 4.3874 5.425Z" fill="#8E6A5D"/>
</svg>
