<svg width="15" height="17" viewBox="0 0 15 17" fill="none" xmlns="http://www.w3.org/2000/svg">
<path d="M13.7195 6.62807C13.1483 5.6532 12.2233 4.936 11.1369 4.6256C10.0504 4.31519 8.88619 4.43546 7.88616 4.9614V0.794738H6.2195V4.9614C5.21947 4.43546 4.05521 4.31519 2.96879 4.6256C1.88237 4.936 0.957385 5.6532 0.386163 6.62807C-1.2805 9.12807 2.88616 16.6281 4.55283 16.6281C6.2195 16.6281 6.2195 15.7947 7.05283 15.7947C7.88616 15.7947 7.88616 16.6281 9.55283 16.6281C11.2195 16.6281 15.3862 9.12807 13.7195 6.62807ZM12.2612 9.44474C11.7445 11.5031 10.7278 13.3947 9.30283 14.9614C9.13616 14.9614 8.9445 14.8781 8.80283 14.7531C8.30751 14.3526 7.68981 14.1341 7.05283 14.1341C6.41585 14.1341 5.79815 14.3526 5.30283 14.7531C5.16116 14.8781 4.9695 14.9614 4.80283 14.9614C3.37482 13.3993 2.35814 11.5063 1.8445 9.45307C1.63616 8.84474 1.5945 8.1864 1.7695 7.5614C2.00668 7.13851 2.34932 6.78423 2.76406 6.53305C3.1788 6.28187 3.6515 6.14235 4.13616 6.12807C4.60283 6.1364 5.06116 6.24474 5.47783 6.45307L6.2195 6.82807H7.88616L8.62783 6.45307C9.0445 6.24474 9.50283 6.1364 9.9695 6.12807C10.9528 6.15307 11.8528 6.69474 12.3362 7.55307C12.5112 8.17807 12.4695 8.8364 12.2612 9.44474ZM6.2195 2.4614C1.53616 5.01974 0.47783 1.44474 0.47783 1.44474C0.47783 1.44474 2.6945 -1.54693 6.2195 2.4614Z" fill="#8E6A5D"/>
</svg>
