<svg width="7" height="17" viewBox="0 0 7 17" fill="none" xmlns="http://www.w3.org/2000/svg">
<path d="M1.77214 0.166664V1.83333H2.53047C2.3138 3.325 0.938802 4.75 0.105469 6V9.975C0.365173 10.2099 0.572753 10.4967 0.714821 10.8168C0.856889 11.1368 0.930291 11.4831 0.930291 11.8333C0.930291 12.1835 0.856889 12.5298 0.714821 12.8499C0.572753 13.17 0.365173 13.4567 0.105469 13.6917V15.1667C0.105469 15.6087 0.281064 16.0326 0.593624 16.3452C0.906185 16.6577 1.33011 16.8333 1.77214 16.8333H5.10547C6.03047 16.8333 6.77214 16.0917 6.77214 15.1667V13.6917C6.51243 13.4567 6.30485 13.17 6.16278 12.8499C6.02071 12.5298 5.94731 12.1835 5.94731 11.8333C5.94731 11.4831 6.02071 11.1368 6.16278 10.8168C6.30485 10.4967 6.51243 10.2099 6.77214 9.975V6C5.9388 4.75 4.5638 3.325 4.34714 1.83333H5.10547V0.166664M3.4388 3.91666C3.6388 4.33333 4.72214 5.58333 5.02213 5.925L5.10547 6V9.33333C4.5638 10.0583 4.27214 10.9333 4.27214 11.8333C4.27214 12.7333 4.5638 13.6083 5.10547 14.3333V15.1667H1.77214V14.3333C2.3138 13.6083 2.60547 12.7333 2.60547 11.8333C2.60547 10.9333 2.3138 10.0583 1.77214 9.33333V6L1.85547 5.925C2.15547 5.58333 3.2388 4.33333 3.4388 3.91666Z" fill="#8E6A5D"/>
</svg>
