<svg width="49" height="44" viewBox="0 0 49 44" fill="none" xmlns="http://www.w3.org/2000/svg">
<rect width="49" height="44" rx="5" fill="#E27D19"/>
<path fill-rule="evenodd" clip-rule="evenodd" d="M20.3837 12.0001C20.4224 12.0002 20.4612 12.0003 20.5 12.0003C20.5389 12.0003 20.5776 12.0002 20.6164 12.0001C21.0772 11.9994 21.5303 11.9986 21.9338 12.1067C23.0122 12.3957 23.8545 13.238 24.1435 14.3165C24.2516 14.72 24.2509 15.173 24.2501 15.6339C24.2501 15.6727 24.25 15.7114 24.25 15.7503H34.25C34.9404 15.7503 35.5 16.3099 35.5 17.0003C35.5 17.6906 34.9404 18.2503 34.25 18.2503H24.25C24.25 18.2891 24.2501 18.3279 24.2501 18.3666C24.2509 18.8275 24.2516 19.2805 24.1435 19.6841C23.8545 20.7625 23.0122 21.6049 21.9338 21.8938C21.5303 22.0019 21.0772 22.0011 20.6164 22.0004C20.5776 22.0004 20.5389 22.0003 20.5 22.0003C20.4612 22.0003 20.4224 22.0004 20.3837 22.0004C19.9228 22.0011 19.4697 22.0019 19.0662 21.8938C17.9878 21.6049 17.1454 20.7625 16.8565 19.6841C16.7483 19.2805 16.7491 18.8275 16.7499 18.3666C16.7499 18.3279 16.75 18.2891 16.75 18.2503H14.25C13.5597 18.2503 13 17.6906 13 17.0003C13 16.3099 13.5597 15.7503 14.25 15.7503H16.75C16.75 15.7114 16.7499 15.6727 16.7499 15.6339C16.7491 15.173 16.7483 14.72 16.8565 14.3165C17.1454 13.238 17.9878 12.3957 19.0662 12.1067C19.4697 11.9986 19.9227 11.9994 20.3837 12.0001ZM19.8733 14.507C19.7399 14.513 19.7086 14.5228 19.7132 14.5216C19.4976 14.5794 19.3291 14.7478 19.2713 14.9635C19.2703 14.9679 19.262 15.0063 19.2567 15.1235C19.2503 15.2636 19.25 15.4483 19.25 15.7503V18.2503C19.25 18.5522 19.2503 18.737 19.2567 18.877C19.2628 19.0103 19.2726 19.0417 19.2713 19.037C19.3291 19.2527 19.4976 19.4212 19.7132 19.479C19.7086 19.4777 19.7399 19.4875 19.8733 19.4936C20.0133 19.5 20.1981 19.5003 20.5 19.5003C20.802 19.5003 20.9868 19.5 21.1267 19.4936C21.26 19.4875 21.2914 19.4777 21.2868 19.479C21.5025 19.4212 21.6709 19.2527 21.7288 19.037C21.7275 19.0417 21.7373 19.0103 21.7432 18.877C21.7498 18.737 21.75 18.5522 21.75 18.2503V15.7503C21.75 15.4483 21.7498 15.2636 21.7432 15.1235C21.7373 14.9902 21.7275 14.9588 21.7288 14.9635M19.8733 14.507C20.0133 14.5006 20.1981 14.5003 20.5 14.5003L19.8733 14.507ZM20.5 14.5003C20.802 14.5003 20.9868 14.5006 21.1267 14.507L20.5 14.5003ZM21.1267 14.507C21.244 14.5123 21.2824 14.5205 21.2868 14.5216L21.1267 14.507ZM27.8836 22.0001C27.9224 22.0003 27.9611 22.0003 28 22.0003C28.0389 22.0003 28.0776 22.0003 28.1164 22.0001C28.5772 21.9994 29.0302 21.9986 29.4338 22.1068C30.5122 22.3958 31.3545 23.238 31.6435 24.3165C31.7516 24.72 31.7509 25.173 31.7501 25.6339C31.7501 25.6726 31.75 25.7114 31.75 25.7503H34.25C34.9404 25.7503 35.5 26.3099 35.5 27.0003C35.5 27.6906 34.9404 28.2503 34.25 28.2503H31.75C31.75 28.2891 31.7501 28.3279 31.7501 28.3666C31.7509 28.8275 31.7516 29.2805 31.6435 29.6841C31.3545 30.7625 30.5122 31.6049 29.4338 31.8938C29.0302 32.0019 28.5772 32.0011 28.1164 32.0004C28.0776 32.0004 28.0389 32.0003 28 32.0003C27.9611 32.0003 27.9224 32.0004 27.8836 32.0004C27.4228 32.0011 26.9697 32.0019 26.5662 31.8938C25.4878 31.6049 24.6455 30.7625 24.3565 29.6841C24.2484 29.2805 24.2491 28.8275 24.2499 28.3666C24.2499 28.3279 24.25 28.2891 24.25 28.2503H14.25C13.5597 28.2503 13 27.6906 13 27.0003C13 26.3099 13.5597 25.7503 14.25 25.7503H24.25C24.25 25.7115 24.2499 25.6726 24.2499 25.6339C24.2491 25.173 24.2484 24.72 24.3565 24.3165C24.6455 23.238 25.4878 22.3958 26.5662 22.1068C26.9697 21.9986 27.4228 21.9994 27.8836 22.0001ZM27.3733 24.507C27.24 24.513 27.2086 24.5228 27.2132 24.5215C26.9975 24.5794 26.8291 24.7479 26.7712 24.9635C26.7725 24.9589 26.7627 24.9903 26.7568 25.1235C26.7502 25.2635 26.75 25.4484 26.75 25.7503V28.2503C26.75 28.5523 26.7502 28.737 26.7568 28.877C26.7627 29.0104 26.7725 29.0418 26.7712 29.037C26.8291 29.2528 26.9975 29.4211 27.2132 29.479C27.2086 29.4778 27.24 29.4875 27.3733 29.4936C27.5133 29.5 27.698 29.5003 28 29.5003C28.302 29.5003 28.4867 29.5 28.6267 29.4936C28.76 29.4875 28.7914 29.4778 28.7868 29.479C29.0025 29.4211 29.1709 29.2528 29.2288 29.037C29.2275 29.0418 29.2373 29.0104 29.2432 28.877C29.2498 28.737 29.25 28.5523 29.25 28.2503V25.7503C29.25 25.4484 29.2498 25.2635 29.2432 25.1235C29.2373 24.9903 29.2275 24.9589 29.2288 24.9635C29.1709 24.7479 29.0025 24.5794 28.7868 24.5215C28.7914 24.5228 28.76 24.513 28.6267 24.507C28.4867 24.5005 28.302 24.5003 28 24.5003C27.698 24.5003 27.5133 24.5005 27.3733 24.507Z" fill="#211A17"/>
</svg>
