<svg width="35" height="35" viewBox="0 0 35 35" fill="none" xmlns="http://www.w3.org/2000/svg">
<path d="M24.0852 25.5196L23.2482 24.6867C23.1375 24.5776 23.0067 24.523 22.8559 24.523C22.7043 24.523 22.5736 24.5776 22.4637 24.6867C22.3538 24.7951 22.2988 24.9233 22.2988 25.0714C22.2988 25.2195 22.3538 25.3482 22.4637 25.4574L23.5626 26.5492C23.721 26.7075 23.8995 26.7867 24.0979 26.7867C24.2964 26.7867 24.4749 26.7075 24.6333 26.5492L27.3141 23.925C27.424 23.8158 27.4832 23.6901 27.4917 23.5479C27.5002 23.4049 27.441 23.2707 27.3141 23.1455C27.2042 23.0363 27.0696 22.9817 26.9103 22.9817C26.751 22.9817 26.616 23.0367 26.5053 23.1467L24.0852 25.5196ZM11.1783 13.0052H23.2687C23.4501 13.0052 23.6017 12.9447 23.7236 12.8236C23.8454 12.7026 23.9067 12.5515 23.9076 12.3704C23.9076 12.1732 23.8462 12.0183 23.7236 11.9057C23.6017 11.7923 23.4501 11.7356 23.2687 11.7356H11.1771C10.9956 11.7356 10.8436 11.7961 10.7209 11.9171C10.5982 12.0382 10.5373 12.1893 10.5382 12.3704C10.539 12.5515 10.5999 12.7026 10.7209 12.8236C10.8419 12.9447 10.9952 13.0052 11.1783 13.0052ZM24.8889 30C23.4654 30 22.2579 29.507 21.2664 28.5209C20.274 27.5357 19.7778 26.3359 19.7778 24.9216C19.7778 23.5073 20.274 22.3071 21.2664 21.321C22.2588 20.335 23.4663 19.8424 24.8889 19.8432C26.3115 19.8441 27.5194 20.3367 28.5127 21.321C29.5059 22.3054 30.0017 23.5056 30 24.9216C30 26.3351 29.5042 27.5349 28.5127 28.5209C27.5194 29.507 26.3115 30 24.8889 30ZM7 9.05167C7 8.48289 7.20104 7.99875 7.60311 7.59925C8.00519 7.19975 8.49244 7 9.06489 7H25.3808C25.9516 7 26.4384 7.19975 26.8413 7.59925C27.2434 7.99875 27.4444 8.48289 27.4444 9.05167V15.8021C27.4444 15.9824 27.3835 16.1335 27.2617 16.2554C27.1399 16.3772 26.9878 16.4378 26.8056 16.4369C26.6233 16.4361 26.4712 16.3755 26.3494 16.2554C26.2276 16.1352 26.1667 15.9841 26.1667 15.8021V9.05167C26.1667 8.85615 26.0849 8.67671 25.9213 8.51336C25.7578 8.35 25.5772 8.26875 25.3796 8.2696H9.06489C8.86811 8.2696 8.68752 8.35085 8.52311 8.51336C8.3587 8.67587 8.27693 8.8553 8.27778 9.05167V26.1074H16.384C16.4104 26.2784 16.4415 26.4494 16.4773 26.6203C16.5139 26.7913 16.5608 26.9597 16.6178 27.1256C16.6749 27.2771 16.6366 27.4011 16.5028 27.4976C16.3682 27.595 16.2405 27.5992 16.1195 27.5103L15.8013 27.2945C15.7068 27.2327 15.6071 27.2018 15.5023 27.2018C15.3976 27.2018 15.2975 27.2327 15.2021 27.2945L14.0814 28.0651C13.9869 28.1278 13.8872 28.1591 13.7824 28.1591C13.6777 28.1591 13.5776 28.1278 13.4822 28.0651L12.3616 27.2945C12.2661 27.2327 12.1661 27.2018 12.0613 27.2018C11.9565 27.2018 11.8568 27.2327 11.7623 27.2945L10.6417 28.0651C10.5471 28.1278 10.4474 28.1591 10.3427 28.1591C10.2379 28.1591 10.1378 28.1278 10.0424 28.0651L8.92178 27.2945C8.82637 27.2327 8.72628 27.2018 8.6215 27.2018C8.51672 27.2018 8.41706 27.2327 8.3225 27.2945L7 28.314V9.05167ZM11.1783 22.5767H16.1284C16.3107 22.5767 16.4628 22.5162 16.5846 22.3951C16.7064 22.2741 16.7673 22.123 16.7673 21.9419C16.7673 21.7607 16.7064 21.6101 16.5846 21.4899C16.4628 21.3697 16.3107 21.3088 16.1284 21.3071H11.1783C10.9969 21.3071 10.8448 21.368 10.7222 21.4899C10.5995 21.6118 10.5386 21.7624 10.5394 21.9419C10.5403 22.1213 10.6012 22.2724 10.7222 22.3951C10.8431 22.5178 10.9952 22.5784 11.1783 22.5767ZM11.1783 17.7916H20.3834C20.5649 17.7916 20.7169 17.731 20.8396 17.61C20.9623 17.489 21.0232 17.3379 21.0223 17.1568C21.0215 16.9756 20.9606 16.8246 20.8396 16.7035C20.7186 16.5825 20.5666 16.522 20.3834 16.522H11.1771C10.9956 16.522 10.8436 16.5825 10.7209 16.7035C10.5982 16.8246 10.5377 16.9756 10.5394 17.1568C10.5411 17.3379 10.6021 17.489 10.7222 17.61C10.8423 17.731 10.9943 17.7916 11.1783 17.7916Z" fill="white"/>
</svg>
