<svg width="27" height="27" viewBox="0 0 27 27" fill="none" xmlns="http://www.w3.org/2000/svg">
<path d="M9.70313 9.5625H4.64063C4.34226 9.5625 4.05611 9.44397 3.84513 9.233C3.63415 9.02202 3.51563 8.73587 3.51562 8.4375V3.375C3.51562 3.07663 3.63415 2.79048 3.84513 2.5795C4.05611 2.36853 4.34226 2.25 4.64063 2.25C4.93899 2.25 5.22514 2.36853 5.43612 2.5795C5.6471 2.79048 5.76563 3.07663 5.76563 3.375V7.3125H9.70313C10.0015 7.3125 10.2876 7.43103 10.4986 7.64201C10.7096 7.85298 10.8281 8.13913 10.8281 8.4375C10.8281 8.73587 10.7096 9.02202 10.4986 9.233C10.2876 9.44397 10.0015 9.5625 9.70313 9.5625Z" fill="white"/>
<path d="M23.625 14.6249C23.3266 14.6249 23.0404 14.5064 22.8295 14.2954C22.6185 14.0844 22.5 13.7983 22.5 13.4999C22.5008 11.5194 21.8479 9.59398 20.6427 8.02243C19.4374 6.45087 17.7471 5.32106 15.8341 4.80832C13.9211 4.29558 11.8924 4.42858 10.0627 5.18668C8.23304 5.94478 6.70473 7.2856 5.71495 9.00106C5.56547 9.25929 5.31953 9.44757 5.03122 9.52448C4.74292 9.60138 4.43588 9.5606 4.17764 9.41112C3.9194 9.26164 3.73112 9.01569 3.65422 8.72739C3.57732 8.43909 3.6181 8.13204 3.76758 7.87381C5.00536 5.72982 6.9161 4.05426 9.20337 3.10705C11.4906 2.15985 14.0266 1.99396 16.4177 2.63512C18.8089 3.27628 20.9216 4.68864 22.4282 6.6531C23.9347 8.61756 24.7509 11.0243 24.75 13.4999C24.75 13.7983 24.6314 14.0844 24.4205 14.2954C24.2095 14.5064 23.9233 14.6249 23.625 14.6249ZM22.3593 24.7499C22.061 24.7499 21.7748 24.6314 21.5638 24.4204C21.3529 24.2094 21.2343 23.9233 21.2343 23.6249V19.6874H17.2968C16.9985 19.6874 16.7123 19.5689 16.5013 19.3579C16.2904 19.1469 16.1718 18.8608 16.1718 18.5624C16.1718 18.2641 16.2904 17.9779 16.5013 17.7669C16.7123 17.556 16.9985 17.4374 17.2968 17.4374H22.3593C22.6577 17.4374 22.9438 17.556 23.1548 17.7669C23.3658 17.9779 23.4843 18.2641 23.4843 18.5624V23.6249C23.4843 23.9233 23.3658 24.2094 23.1548 24.4204C22.9438 24.6314 22.6577 24.7499 22.3593 24.7499Z" fill="white"/>
<path d="M13.5 24.75C10.5172 24.747 7.65748 23.5608 5.54834 21.4517C3.4392 19.3425 2.25298 16.4828 2.25 13.5C2.25 13.2016 2.36853 12.9155 2.5795 12.7045C2.79048 12.4935 3.07663 12.375 3.375 12.375C3.67337 12.375 3.95952 12.4935 4.1705 12.7045C4.38147 12.9155 4.5 13.2016 4.5 13.5C4.49914 15.4805 5.152 17.4059 6.35727 18.9775C7.56253 20.5491 9.25281 21.6789 11.1658 22.1916C13.0788 22.7043 15.1076 22.5713 16.9372 21.8132C18.7669 21.0551 20.2952 19.7143 21.285 17.9989C21.359 17.871 21.4575 17.759 21.5748 17.6692C21.6921 17.5794 21.826 17.5135 21.9687 17.4755C22.1115 17.4374 22.2603 17.4278 22.4068 17.4472C22.5533 17.4667 22.6944 17.5148 22.8223 17.5888C22.9502 17.6628 23.0622 17.7613 23.152 17.8786C23.2418 17.9959 23.3077 18.1298 23.3457 18.2725C23.3838 18.4153 23.3934 18.5641 23.3739 18.7106C23.3545 18.8571 23.3064 18.9983 23.2324 19.1261C22.2431 20.8323 20.8239 22.2494 19.1163 23.2362C17.4087 24.2229 15.4722 24.7449 13.5 24.75Z" fill="white"/>
</svg>
