<svg width="19" height="18" viewBox="0 0 19 18" fill="none" xmlns="http://www.w3.org/2000/svg">
<path d="M2.75 7.5V3C2.75 2.7875 2.822 2.6095 2.966 2.466C3.11 2.3225 3.288 2.2505 3.5 2.25H8C8.2125 2.25 8.39075 2.322 8.53475 2.466C8.67875 2.61 8.7505 2.788 8.75 3V7.5C8.75 7.7125 8.678 7.89075 8.534 8.03475C8.39 8.17875 8.212 8.2505 8 8.25H3.5C3.2875 8.25 3.1095 8.178 2.966 8.034C2.8225 7.89 2.7505 7.712 2.75 7.5ZM4.25 6.75H7.25V3.75H4.25V6.75ZM2.75 15V10.5C2.75 10.2875 2.822 10.1095 2.966 9.966C3.11 9.8225 3.288 9.7505 3.5 9.75H8C8.2125 9.75 8.39075 9.822 8.53475 9.966C8.67875 10.11 8.7505 10.288 8.75 10.5V15C8.75 15.2125 8.678 15.3907 8.534 15.5347C8.39 15.6787 8.212 15.7505 8 15.75H3.5C3.2875 15.75 3.1095 15.678 2.966 15.534C2.8225 15.39 2.7505 15.212 2.75 15ZM4.25 14.25H7.25V11.25H4.25V14.25ZM10.25 7.5V3C10.25 2.7875 10.322 2.6095 10.466 2.466C10.61 2.3225 10.788 2.2505 11 2.25H15.5C15.7125 2.25 15.8907 2.322 16.0347 2.466C16.1787 2.61 16.2505 2.788 16.25 3V7.5C16.25 7.7125 16.178 7.89075 16.034 8.03475C15.89 8.17875 15.712 8.2505 15.5 8.25H11C10.7875 8.25 10.6095 8.178 10.466 8.034C10.3225 7.89 10.2505 7.712 10.25 7.5ZM11.75 6.75H14.75V3.75H11.75V6.75ZM14.75 15.75V14.25H16.25V15.75H14.75ZM10.25 11.25V9.75H11.75V11.25H10.25ZM11.75 12.75V11.25H13.25V12.75H11.75ZM10.25 14.25V12.75H11.75V14.25H10.25ZM11.75 15.75V14.25H13.25V15.75H11.75ZM13.25 14.25V12.75H14.75V14.25H13.25ZM13.25 11.25V9.75H14.75V11.25H13.25ZM14.75 12.75V11.25H16.25V12.75H14.75Z" fill="#1E58A4"/>
</svg>
