<svg width="28" height="28" viewBox="0 0 28 28" fill="none" xmlns="http://www.w3.org/2000/svg">
<path d="M6.99984 26.6666C6.35817 26.6666 5.80906 26.4383 5.3525 25.9818C4.89595 25.5252 4.66728 24.9757 4.6665 24.3333V5.66659C4.6665 5.02492 4.89517 4.47581 5.3525 4.01925C5.80984 3.5627 6.35895 3.33403 6.99984 3.33325H20.9998C21.6415 3.33325 22.191 3.56192 22.6483 4.01925C23.1057 4.47659 23.3339 5.0257 23.3332 5.66659V24.3333C23.3332 24.9749 23.1049 25.5244 22.6483 25.9818C22.1918 26.4391 21.6423 26.6674 20.9998 26.6666H17.4998L16.3332 24.3333H11.6665L10.4998 26.6666H6.99984ZM6.99984 24.3333H9.0415L10.2082 21.9999H17.7915L18.9582 24.3333H20.9998V5.66659H6.99984V24.3333ZM9.33317 18.4999H18.6665V17.8583C18.6665 16.8471 18.1804 16.118 17.2082 15.6708C16.2359 15.2235 15.1665 14.9999 13.9998 14.9999C12.8332 14.9999 11.7637 15.2235 10.7915 15.6708C9.81928 16.118 9.33317 16.8471 9.33317 17.8583V18.4999ZM13.9998 13.8333C14.6415 13.8333 15.191 13.605 15.6483 13.1484C16.1057 12.6919 16.3339 12.1424 16.3332 11.4999C16.3324 10.8575 16.1041 10.3084 15.6483 9.85259C15.1926 9.39681 14.6431 9.16814 13.9998 9.16659C13.3566 9.16503 12.8075 9.3937 12.3525 9.85259C11.8975 10.3115 11.6688 10.8606 11.6665 11.4999C11.6642 12.1393 11.8928 12.6888 12.3525 13.1484C12.8122 13.6081 13.3613 13.8364 13.9998 13.8333Z" fill="white"/>
</svg>
