<svg width="29" height="29" viewBox="0 0 29 29" fill="none" xmlns="http://www.w3.org/2000/svg">
<path d="M25.4052 13.3521V22.9583C25.4052 23.6229 25.1687 24.192 24.6959 24.6657C24.223 25.1394 23.6539 25.3758 22.9885 25.375H6.07184C5.40725 25.375 4.83853 25.1386 4.36567 24.6657C3.89281 24.1928 3.65598 23.6237 3.65517 22.9583V13.3521C3.19198 12.9292 2.83471 12.3854 2.58338 11.7208C2.33205 11.0562 2.32681 10.3312 2.56767 9.54583L3.83642 5.4375C3.99753 4.91389 4.28471 4.4809 4.69796 4.13854C5.11121 3.79618 5.58931 3.625 6.13225 3.625H22.9281C23.4718 3.625 23.9451 3.79135 24.3479 4.12404C24.7507 4.45674 25.0427 4.89456 25.2239 5.4375L26.4927 9.54583C26.7343 10.3312 26.7295 11.0462 26.4782 11.6906C26.2268 12.3351 25.8692 12.8889 25.4052 13.3521ZM17.1885 12.0833C17.7323 12.0833 18.1451 11.8972 18.427 11.5251C18.709 11.1529 18.8198 10.7348 18.7593 10.2708L18.0948 6.04167H15.7385V10.5125C15.7385 10.9354 15.8795 11.3032 16.1614 11.6157C16.4434 11.9283 16.7857 12.0841 17.1885 12.0833ZM11.751 12.0833C12.2142 12.0833 12.592 11.9271 12.8844 11.6145C13.1768 11.3019 13.3226 10.9346 13.3218 10.5125V6.04167H10.9656L10.301 10.2708C10.2204 10.7542 10.326 11.1771 10.6176 11.5396C10.9092 11.9021 11.287 12.0833 11.751 12.0833ZM6.37392 12.0833C6.73642 12.0833 7.05341 11.9524 7.32488 11.6906C7.59635 11.4288 7.7627 11.0965 7.82392 10.6937L8.4885 6.04167H6.13225L4.92392 10.0896C4.80309 10.4924 4.86834 10.9253 5.11967 11.3885C5.371 11.8517 5.78909 12.0833 6.37392 12.0833ZM22.6864 12.0833C23.2704 12.0833 23.6934 11.8517 23.9552 11.3885C24.217 10.9253 24.2774 10.4924 24.1364 10.0896L22.8677 6.04167H20.5718L21.2364 10.6937C21.2968 11.0965 21.4632 11.4288 21.7355 11.6906C22.0077 11.9524 22.3247 12.0833 22.6864 12.0833ZM6.07184 22.9583H22.9885V14.4396C22.8878 14.4799 22.8226 14.5 22.7928 14.5H22.6864C22.1427 14.5 21.6646 14.4094 21.2521 14.2281C20.8397 14.0469 20.4317 13.7549 20.0281 13.3521C19.6656 13.7146 19.2527 13.9965 18.7895 14.1979C18.3264 14.3993 17.8329 14.5 17.3093 14.5C16.7656 14.5 16.2569 14.3993 15.7832 14.1979C15.3095 13.9965 14.8919 13.7146 14.5302 13.3521C14.1878 13.7146 13.7903 13.9965 13.3375 14.1979C12.8848 14.3993 12.3963 14.5 11.8718 14.5C11.2878 14.5 10.7594 14.3993 10.2865 14.1979C9.81364 13.9965 9.39556 13.7146 9.03225 13.3521C8.60934 13.775 8.19166 14.0722 7.77921 14.2438C7.36677 14.4154 6.89834 14.5008 6.37392 14.5H6.23859C6.18784 14.5 6.13225 14.4799 6.07184 14.4396V22.9583Z" fill="white"/>
</svg>